<?xml version="1.0" encoding="UTF-8"?>
<svg width="610px" height="330px" viewBox="0 0 610 330" version="1.1" xmlns="http://www.w3.org/2000/svg" xmlns:xlink="http://www.w3.org/1999/xlink">
    <title>experiments_control_flow</title>
    <defs>
        <rect id="path-1" x="201" y="6" width="404" height="320"></rect>
        <mask id="mask-2" maskContentUnits="userSpaceOnUse" maskUnits="objectBoundingBox" x="0" y="0" width="404" height="320" fill="white">
            <use xlink:href="#path-1"></use>
        </mask>
        <rect id="path-3" x="274" y="179" width="171" height="147"></rect>
        <mask id="mask-4" maskContentUnits="userSpaceOnUse" maskUnits="objectBoundingBox" x="0" y="0" width="171" height="147" fill="white">
            <use xlink:href="#path-3"></use>
        </mask>
    </defs>
    <g id="experiments_control_flow" stroke="none" stroke-width="1" fill="none" fill-rule="evenodd">
        <rect id="Rectangle" fill="#586C86" x="9" y="32" width="166" height="162"></rect>
        <g id="Group-2" transform="translate(14.000000, 39.000000)">
            <rect id="Rectangle" stroke="#979797" fill="#D8D8D8" x="0.5" y="0.5" width="153" height="42"></rect>
            <text id="Parameters-of-a-sche" font-family="LucidaGrande, Lucida Grande" font-size="8" font-weight="normal" letter-spacing="0.032" fill="#1A1919">
                <tspan x="21" y="29">Parameters of a schedule.</tspan>
            </text>
            <text id="Schedule-Settable(s)" font-family="LucidaGrande, Lucida Grande" font-size="12" font-weight="normal" letter-spacing="0.048" fill="#1A1919">
                <tspan x="7" y="15">Schedule </tspan>
                <tspan x="63.1253594" y="15" font-family="AndaleMono, Andale Mono">Settable</tspan>
                <tspan x="121.118734" y="15">(s)</tspan>
            </text>
        </g>
        <g id="Group-3" transform="translate(14.000000, 115.000000)">
            <rect id="Rectangle-Copy" stroke="#979797" fill="#D8D8D8" x="0.5" y="0.5" width="153" height="69"></rect>
            <text id="Generate-schedule-ba" font-family="LucidaGrande, Lucida Grande" font-size="8" font-weight="normal" letter-spacing="0.032" fill="#1A1919">
                <tspan x="15" y="29">Generate schedule based on </tspan>
                <tspan x="15" y="39">values of settable(s). </tspan>
                <tspan x="15" y="49">Compile and execute a schedule. </tspan>
                <tspan x="15" y="59">Returns acquired data.</tspan>
            </text>
            <text id="ScheduleGettable" font-family="AndaleMono, Andale Mono" font-size="12" font-weight="normal" letter-spacing="0.048" fill="#1A1919">
                <tspan x="7" y="15">ScheduleGettable</tspan>
            </text>
        </g>
        <g id="Group-3-Copy" transform="translate(210.000000, 10.000000)">
            <rect id="Rectangle-Copy" stroke="#979797" fill="#D8D8D8" x="0.5" y="0.5" width="115" height="44"></rect>
            <text id="Template-function-to" font-family="LucidaGrande, Lucida Grande" font-size="8" font-weight="normal" letter-spacing="0.032" fill="#1A1919">
                <tspan x="14" y="20">Template function to </tspan>
                <tspan x="14" y="30">generate a schedule: </tspan>
                <tspan x="14" y="40">e.g., </tspan>
                <tspan x="33.7623125" y="40" font-family="AndaleMono, Andale Mono">t1_sched().</tspan>
            </text>
            <text id="Generate-schedule" font-family="LucidaGrande, Lucida Grande" font-size="10" font-weight="normal" letter-spacing="0.04" fill="#1A1919">
                <tspan x="8" y="10">Generate schedule</tspan>
            </text>
        </g>
        <g id="Group-3-Copy-2" transform="translate(448.000000, 13.000000)">
            <rect id="Rectangle-Copy" stroke="#979797" fill="#D8D8D8" x="0.5" y="0.5" width="106" height="37"></rect>
            <text id="Generate-device-conf" font-family="LucidaGrande, Lucida Grande" font-size="8" font-weight="normal" letter-spacing="0.032" fill="#1A1919">
                <tspan x="14" y="20">Generate device config </tspan>
                <tspan x="14" y="30">and hardware config.</tspan>
            </text>
            <text id="QuantumDevice" font-family="AndaleMono, Andale Mono" font-size="10" font-weight="normal" letter-spacing="0.04" fill="#1A1919">
                <tspan x="7" y="10">QuantumDevice</tspan>
            </text>
        </g>
        <g id="Group-3-Copy-4" transform="translate(288.000000, 272.000000)">
            <rect id="Rectangle-Copy" stroke="#979797" fill="#D8D8D8" x="0.5" y="0.5" width="146" height="46"></rect>
            <text id="QCoDeS-Instruments-c" font-family="LucidaGrande, Lucida Grande" font-size="8" font-weight="normal" letter-spacing="0.032" fill="#1A1919">
                <tspan x="18" y="20">QCoDeS </tspan>
                <tspan x="52.177125" y="20" font-family="AndaleMono, Andale Mono">Instrument</tspan>
                <tspan x="100.504937" y="20">s </tspan>
                <tspan x="18" y="30">controlling physical </tspan>
                <tspan x="18" y="40">instruments.</tspan>
            </text>
            <text id="Physical-instruments" font-family="LucidaGrande, Lucida Grande" font-size="10" font-weight="normal" letter-spacing="0.04" fill="#1A1919">
                <tspan x="9" y="10">Physical instruments</tspan>
            </text>
        </g>
        <g id="Group-3-Copy-5" transform="translate(287.000000, 194.000000)">
            <rect id="Rectangle-Copy" stroke="#979797" fill="#D8D8D8" x="0.5" y="0.5" width="147" height="49"></rect>
            <text id="Hardware-agnostic-in" font-family="LucidaGrande, Lucida Grande" font-size="8" font-weight="normal" letter-spacing="0.032" fill="#1A1919">
                <tspan x="16" y="24">Hardware agnostic interface to </tspan>
                <tspan x="16" y="34">execute compiled schedules: </tspan>
                <tspan x="16" y="44">the </tspan>
                <tspan x="31.0733125" y="44" font-family="AndaleMono, Andale Mono">InstrumentCoordinator.</tspan>
            </text>
            <text id="Hardware-Abstraction" font-family="LucidaGrande, Lucida Grande" font-size="10" font-weight="normal" letter-spacing="0.04" fill="#1A1919">
                <tspan x="7" y="10">Hardware Abstraction Layer</tspan>
            </text>
        </g>
        <g id="Group-3-Copy-3" transform="translate(287.000000, 67.000000)">
            <rect id="Rectangle-Copy" stroke="#979797" fill="#D8D8D8" x="0.5" y="0.5" width="136" height="54"></rect>
            <text id="Compiles-a-schedule," font-family="LucidaGrande, Lucida Grande" font-size="8" font-weight="normal" letter-spacing="0.032" fill="#1A1919">
                <tspan x="8" y="28">Compiles a schedule, returns </tspan>
                <tspan x="8" y="38">files the hardware can execute. </tspan>
            </text>
            <text id="qcompile()" font-family="AndaleMono, Andale Mono" font-size="10" font-weight="normal" letter-spacing="0.04" fill="#1A1919">
                <tspan x="5" y="14">qcompile()</tspan>
            </text>
        </g>
        <text id="Schedule" font-family="AndaleMono, Andale Mono" font-size="10" font-weight="normal" letter-spacing="0.04" fill="#1A1919">
            <tspan x="225" y="103.416667">Schedule</tspan>
        </text>
        <text id="Dataset" font-family="AndaleMono, Andale Mono" font-size="10" font-weight="normal" letter-spacing="0.04" fill="#1A1919">
            <tspan x="227" y="194">Dataset</tspan>
        </text>
        <g id="Group-6" transform="translate(379.000000, 131.000000)" fill="#1A1919" font-size="10" font-weight="normal" letter-spacing="0.04">
            <text id="CompiledSchedule" font-family="AndaleMono, Andale Mono">
                <tspan x="0" y="9">CompiledSchedule</tspan>
                <tspan x="96.655625" y="9" font-family="LucidaGrande, Lucida Grande"></tspan>
                <tspan x="0" y="20" font-family="LucidaGrande, Lucida Grande" letter-spacing="0.032"></tspan>
            </text>
            <g id="Group-5" transform="translate(0.000000, 9.000000)" font-family="LucidaGrande, Lucida Grande">
                <text id="•-•-•">
                    <tspan x="0" y="11">	• 	 </tspan>
                    <tspan x="0" y="23">	• 	 </tspan>
                    <tspan x="0" y="35">	• 	 </tspan>
                </text>
                <text id="sequences-waveforms">
                    <tspan x="21" y="10">sequences</tspan>
                    <tspan x="21" y="22">waveforms</tspan>
                    <tspan x="21" y="34">settings</tspan>
                </text>
            </g>
        </g>
        <path id="Line-5" d="M437.416684,91.3357899 L437.487,97.335 L465.988236,97.0000692 L466.988167,96.9883053 L467.011695,98.9881669 L466.011764,98.9999308 L437.51,99.335 L437.581378,105.334821 L423.5,98.5 L437.416684,91.3357899 Z" fill="#00CE7D" fill-rule="nonzero"></path>
        <path id="Line-5" d="M357,121 L357,180 L363,180 L356,194 L349,180 L355,180 L355,121 L357,121 Z" fill="#00CE7D" fill-rule="nonzero"></path>
        <path id="Line-5" d="M92,82 L92,101 L98,101 L91,115 L84,101 L90,101 L90,82 L92,82 Z" fill="#00CE7D" fill-rule="nonzero"></path>
        <path id="Line-5" d="M196,32 L210,39 L196,46 L196,40 L185,40 L185,38 L196,38 L196,32 Z" fill="#00CE7D" fill-rule="nonzero"></path>
        <path id="Line-5" d="M273,76 L287,83 L273,90 L273,84 L258,84 L258,82 L273,82 L273,76 Z" fill="#00CE7D" fill-rule="nonzero"></path>
        <path id="Line-5" d="M357,243 L357,258 L363,258 L356,272 L349,258 L355,258 L355,243 L357,243 Z" fill="#00CE7D" fill-rule="nonzero"></path>
        <path id="Line-5" d="M322,243 L329,257 L323,257 L323,273 L321,273 L321,257 L315,257 L322,243 Z" fill="#FE7E79" fill-rule="nonzero"></path>
        <path id="Line-5" d="M278,160 L278,166 L323,166 L323,168 L278,168 L278,174 L264,167 L278,160 Z" fill="#FE7E79" fill-rule="nonzero"></path>
        <path id="Line-5" d="M182,160 L182,166 L232,166 L232,168 L182,168 L182,174 L168,167 L182,160 Z" fill="#FE7E79" fill-rule="nonzero"></path>
        <path id="Line-5" d="M437.529411,107.559134 L437.504,113.558 L542.004219,114.000009 L543.00421,114.004228 L542.995772,116.00421 L541.995781,115.999991 L437.495,115.558 L437.47034,121.559009 L423.5,114.5 L437.529411,107.559134 Z" fill="#00CE7D" fill-rule="nonzero"></path>
        <line x1="465.5" y1="51.5" x2="466" y2="98" id="Line-6" stroke="#00CE7D" stroke-width="2" stroke-linecap="square"></line>
        <line x1="541.5" y1="52.5" x2="542" y2="115" id="Line-6-Copy" stroke="#00CE7D" stroke-width="2" stroke-linecap="square"></line>
        <line x1="185.5" y1="39.5" x2="186" y2="146" id="Line-6-Copy" stroke="#00CE7D" stroke-width="2" stroke-linecap="square"></line>
        <line x1="168" y1="146" x2="186" y2="146" id="Line-6-Copy" stroke="#00CE7D" stroke-width="2" stroke-linecap="square"></line>
        <g id="Group-8" transform="translate(345.000000, 137.000000)" fill-rule="nonzero">
            <g id="Group" transform="translate(9.000000, 0.000000)">
                <rect id="Rectangle" fill="#FFFFFF" x="1" y="1" width="21" height="26"></rect>
                <path d="M0,0.356186462 L0,27.8913078 L22,27.8913078 L22,6.25080749 L16.007812,0.356186462 L16,0.356186462 L15.800781,0.356186462 L0,0.356186462 Z M1,1.33958365 L15,1.33958365 L15,7.23996679 L21,7.23996679 L21,26.9079106 L1,26.9079106 L1,1.33958365 Z M16,1.73908876 L20.591797,6.2565696 L16,6.2565696 L16,1.73908876 Z M5.414062,13.1883673 L4,14.5808734 L7.535156,18.0573359 L4,21.5337984 L5.416016,22.9263045 L8.949219,19.449842 L10.365234,18.0573359 L8.949219,16.6667513 L5.414062,13.1883673 Z M11,21.0075275 L11,22.9743218 L18,22.9743218 L18,21.0075275 L11,21.0075275 Z" id="Shape" fill="#000000"></path>
            </g>
            <g id="Group" transform="translate(0.000000, 3.000000)">
                <rect id="Rectangle" fill="#FFFFFF" x="1" y="1" width="21" height="26"></rect>
                <path d="M0,0.356186462 L0,27.8913078 L22,27.8913078 L22,6.25080749 L16.007812,0.356186462 L16,0.356186462 L15.800781,0.356186462 L0,0.356186462 Z M1,1.33958365 L15,1.33958365 L15,7.23996679 L21,7.23996679 L21,26.9079106 L1,26.9079106 L1,1.33958365 Z M16,1.73908876 L20.591797,6.2565696 L16,6.2565696 L16,1.73908876 Z M5.414062,13.1883673 L4,14.5808734 L7.535156,18.0573359 L4,21.5337984 L5.416016,22.9263045 L8.949219,19.449842 L10.365234,18.0573359 L8.949219,16.6667513 L5.414062,13.1883673 Z M11,21.0075275 L11,22.9743218 L18,22.9743218 L18,21.0075275 L11,21.0075275 Z" id="Shape" fill="#000000"></path>
            </g>
        </g>
        <text id="Experiment-execution" transform="translate(459.500000, 244.000000) rotate(90.000000) translate(-459.500000, -244.000000) " font-family="LucidaGrande, Lucida Grande" font-size="12" font-weight="normal" letter-spacing="0.048" fill="#1A1919">
            <tspan x="426.083656" y="241">Experiment </tspan>
            <tspan x="430.734195" y="256">execution</tspan>
        </text>
        <g id="Group-7" transform="translate(453.000000, 52.000000)">
            <rect id="Rectangle" fill="#FFFFFF" x="78" y="7" width="26" height="30"></rect>
            <rect id="Rectangle" fill="#FFFFFF" x="2" y="7" width="22" height="30"></rect>
            <text id="hardware-config" font-family="LucidaGrande, Lucida Grande" font-size="10" font-weight="normal" letter-spacing="0.04" fill="#1A1919">
                <tspan x="105.817559" y="10">hardware </tspan>
                <tspan x="113.324316" y="22">config</tspan>
            </text>
            <text id="device-config" font-family="LucidaGrande, Lucida Grande" font-size="10" font-weight="normal" letter-spacing="0.04" fill="#1A1919">
                <tspan x="26.0475" y="10">device </tspan>
                <tspan x="26.3243164" y="22">config</tspan>
            </text>
            <g id="noun_Settings_968525" transform="translate(0.000000, 7.000000)" fill="#000000" fill-rule="nonzero">
                <g id="Group">
                    <path d="M24.7965278,7.95643182 L17.1576389,0.206431818 C17.0274306,0.0743295455 16.8506944,0 16.6666667,0 L0.694444444,0 C0.311111111,0 0,0.315636364 0,0.704545455 L0,30.2954545 C0,30.6843636 0.311111111,31 0.694444444,31 L24.3055556,31 C24.6888889,31 25,30.6843636 25,30.2954545 L25,8.45454545 C25,8.26784091 24.9267361,8.08853409 24.7965278,7.95643182 Z M17.3611111,2.40531818 L22.6288194,7.75 L17.3611111,7.75 L17.3611111,2.40531818 Z M1.38888889,29.5909091 L1.38888889,1.40909091 L15.9722222,1.40909091 L15.9722222,8.45454545 C15.9722222,8.84345455 16.2833333,9.15909091 16.6666667,9.15909091 L23.6111111,9.15909091 L23.6111111,29.5909091 L1.38888889,29.5909091 Z" id="Shape"></path>
                    <path d="M19.2708333,15.5 L12.3975694,15.5 C12.0979167,14.4826364 11.1680556,13.7386364 10.0694444,13.7386364 C8.97083333,13.7386364 8.04097222,14.4826364 7.74131944,15.5 L5.72916667,15.5 C5.63368056,15.5 5.55555556,15.5792614 5.55555556,15.6761364 L5.55555556,16.7329545 C5.55555556,16.8298295 5.63368056,16.9090909 5.72916667,16.9090909 L7.74131944,16.9090909 C8.04097222,17.9261023 8.97083333,18.6704545 10.0694444,18.6704545 C11.146875,18.6704545 12.0847222,17.9394886 12.3895833,16.9090909 L19.2708333,16.9090909 C19.3663194,16.9090909 19.4444444,16.8298295 19.4444444,16.7329545 L19.4444444,15.6761364 C19.4444444,15.5792614 19.3663194,15.5 19.2708333,15.5 Z M11.0902778,16.4166136 C10.9923611,16.9059205 10.5628472,17.2613636 10.0694444,17.2613636 C9.49513889,17.2613636 9.02777778,16.7872045 9.02777778,16.2045455 C9.02777778,15.6218864 9.49513889,15.1477273 10.0694444,15.1477273 C10.64375,15.1477273 11.1111111,15.6218864 11.1111111,16.2045455 C11.1111111,16.2760568 11.1038194,16.3475682 11.0902778,16.4166136 Z" id="Shape"></path>
                    <path d="M5.72916667,22.5454545 L12.6024306,22.5454545 C12.9020833,23.5628182 13.8319444,24.3068182 14.9305556,24.3068182 C16.0291667,24.3068182 16.9590278,23.5628182 17.2586806,22.5454545 L19.2708333,22.5454545 C19.3663194,22.5454545 19.4444444,22.4661932 19.4444444,22.3693182 L19.4444444,21.3125 C19.4444444,21.215625 19.3663194,21.1363636 19.2708333,21.1363636 L17.2586806,21.1363636 C16.9590278,20.1193523 16.0291667,19.375 14.9305556,19.375 C13.853125,19.375 12.9152778,20.1059659 12.6104167,21.1363636 L5.72916667,21.1363636 C5.63368056,21.1363636 5.55555556,21.215625 5.55555556,21.3125 L5.55555556,22.3693182 C5.55555556,22.4661932 5.63368056,22.5454545 5.72916667,22.5454545 Z M13.9097222,21.6288409 C14.0076389,21.1395341 14.4371528,20.7840909 14.9305556,20.7840909 C15.5048611,20.7840909 15.9722222,21.25825 15.9722222,21.8409091 C15.9722222,22.4235682 15.5048611,22.8977273 14.9305556,22.8977273 C14.35625,22.8977273 13.8888889,22.4235682 13.8888889,21.8409091 C13.8888889,21.7693977 13.8961806,21.6978864 13.9097222,21.6288409 Z" id="Shape"></path>
                </g>
            </g>
            <g id="noun_Stylesheet_968524" transform="translate(79.000000, 7.000000)" fill="#000000" fill-rule="nonzero">
                <g id="Group">
                    <path d="M24.7965278,7.95643182 L17.1576389,0.206431818 C17.0274306,0.0743295455 16.8506944,0 16.6666667,0 L0.694444444,0 C0.311111111,0 0,0.315636364 0,0.704545455 L0,30.2954545 C0,30.6843636 0.311111111,31 0.694444444,31 L24.3055556,31 C24.6888889,31 25,30.6843636 25,30.2954545 L25,8.45454545 C25,8.26784091 24.9267361,8.08853409 24.7965278,7.95643182 Z M17.3611111,2.40531818 L22.6288194,7.75 L17.3611111,7.75 L17.3611111,2.40531818 Z M1.38888889,29.5909091 L1.38888889,1.40909091 L15.9722222,1.40909091 L15.9722222,8.45454545 C15.9722222,8.84345455 16.2833333,9.15909091 16.6666667,9.15909091 L23.6111111,9.15909091 L23.6111111,29.5909091 L1.38888889,29.5909091 Z" id="Shape"></path>
                    <path d="M16.665625,23.9545455 C16.3208333,23.9545455 16.0215278,23.6938636 15.9777778,23.3373636 C15.9302083,22.9512727 16.2003472,22.599 16.5805556,22.5510909 C17.1506944,22.478875 17.2194444,22.4285 17.11875,21.3639318 C17.0579861,20.719625 16.9621528,19.7078977 17.6347222,19.0227273 C16.9618056,18.3379091 17.0579861,17.3261818 17.11875,16.6815227 C17.2194444,15.6169545 17.1506944,15.5665795 16.5805556,15.4943636 C16.2,15.4461023 15.9302083,15.0941818 15.9777778,14.7080909 C16.0253472,14.322 16.3746528,14.0475795 16.7527778,14.0965455 C18.7347222,14.3477159 18.5829861,15.953375 18.5013889,16.8164432 C18.403125,17.8556477 18.3697917,18.2058068 19.5135417,18.3217045 C19.86875,18.3576364 20.1388889,18.6609432 20.1388889,19.0227273 C20.1388889,19.3845114 19.86875,19.6878182 19.5135417,19.72375 C18.3697917,19.8396477 18.403125,20.1898068 18.5013889,21.2290114 C18.5826389,22.0917273 18.7347222,23.6977386 16.7527778,23.9489091 C16.7236111,23.9527841 16.6944444,23.9545455 16.665625,23.9545455 Z" id="Path"></path>
                    <path d="M8.33402778,23.9545455 C8.30520833,23.9545455 8.27604167,23.9527841 8.24722222,23.9489091 C6.26527778,23.6977386 6.41701389,22.0920795 6.49861111,21.2290114 C6.596875,20.1898068 6.62986111,19.8396477 5.48611111,19.72375 C5.13159722,19.6878182 4.86111111,19.3845114 4.86111111,19.0227273 C4.86111111,18.6609432 5.13159722,18.3576364 5.48645833,18.3217045 C6.63020833,18.2058068 6.59722222,17.8556477 6.49895833,16.8164432 C6.41736111,15.9537273 6.265625,14.3480682 8.24756944,14.0965455 C8.62743056,14.0486364 8.975,14.3223523 9.02256944,14.7080909 C9.07013889,15.0941818 8.80034722,15.4464545 8.41979167,15.4943636 C7.84965278,15.5669318 7.78090278,15.6169545 7.88159722,16.6815227 C7.94236111,17.3258295 8.03819444,18.3375568 7.365625,19.0227273 C8.03854167,19.7075455 7.94270833,20.7192727 7.88159722,21.3639318 C7.78090278,22.4285 7.84965278,22.478875 8.41979167,22.5510909 C8.80034722,22.5993523 9.07048611,22.951625 9.02256944,23.3373636 C8.97847222,23.6938636 8.67951389,23.9545455 8.33402778,23.9545455 Z" id="Path"></path>
                    <ellipse id="Oval" cx="10.4166667" cy="21.8409091" rx="1" ry="1"></ellipse>
                    <ellipse id="Oval" cx="14.5833333" cy="21.8409091" rx="1" ry="1"></ellipse>
                    <ellipse id="Oval" cx="12.5" cy="21.8409091" rx="1" ry="1"></ellipse>
                </g>
            </g>
        </g>
        <g id="noun_Gear_5393" transform="translate(394.000000, 57.000000)" fill="#000000" fill-rule="nonzero">
            <g id="Group" transform="translate(0.000000, 10.000000)">
                <path d="M14.4614651,10.7349545 C15.5866279,10.5422727 16.1990233,10.5295909 16.1990233,10.5295909 C16.6343023,10.5205909 16.9897209,10.1446364 16.9897209,9.69463636 L16.9897209,8.48004545 C16.9897209,8.03004545 16.6354884,7.63077273 16.2017907,7.59313636 C16.2017907,7.59313636 15.1893023,7.50436364 14.4847907,7.32886364 C14.4262791,7.31413636 14.4262791,7.31413636 14.4262791,7.31413636 C14.3677674,7.28631818 14.2724884,7.13331818 14.2159535,6.97336364 C14.1586279,6.81381818 14.0163023,6.24068182 14.0593953,6.03572727 C14.0593953,6.03572727 14.0593953,6.03572727 14.1965814,5.83977273 C14.858,4.89272727 15.2620465,4.46277273 15.2620465,4.46277273 C15.5652791,4.14 15.5601395,3.61759091 15.250186,3.30177273 L14.3993953,2.43409091 C14.0894419,2.11827273 13.5770698,2.11213636 13.2607907,2.421 C13.2607907,2.421 12.7804419,2.88940909 11.850186,3.4155 C11.637093,3.53577273 11.637093,3.53577273 11.637093,3.53577273 C11.3781395,3.54968182 11.0373488,3.50304545 10.8796047,3.43145455 C10.7218605,3.35986364 10.277093,3.17209091 10.2644419,3.12422727 C10.2644419,3.12422727 10.2644419,3.12422727 10.2565349,3.07677273 C10.0683488,1.93009091 10.0529302,1.05954545 10.0529302,1.05954545 C10.0450233,0.609545455 9.68248837,0.241363636 9.24760465,0.241363636 L8.03269767,0.241363636 C7.59781395,0.241363636 7.23527907,0.609545455 7.22697674,1.05954545 C7.22697674,1.05954545 7.2095814,2.01068182 6.91544186,3.05427273 C6.89686047,3.12054545 6.89686047,3.12054545 6.89686047,3.12054545 C6.86404651,3.18722727 6.74662791,3.27436364 6.63553488,3.31486364 C6.52444186,3.35495455 5.99823256,3.47236364 5.70488372,3.4695 C5.70488372,3.4695 5.70488372,3.4695 5.46293023,3.33245455 C4.53148837,2.80759091 4.05153488,2.33918182 4.05153488,2.33918182 C3.73525581,2.03031818 3.22288372,2.03604545 2.91293023,2.35186364 L2.06253488,3.21913636 C1.7525814,3.53495455 1.74744186,4.05736364 2.05027907,4.37972727 C2.05027907,4.37972727 2.45472093,4.8105 3.11653488,5.75754545 C3.24067442,5.93509091 3.24067442,5.93509091 3.24067442,5.93509091 C3.28653488,6.12163636 3.25767442,6.41577273 3.17623256,6.58840909 C3.0947907,6.76145455 2.86548837,7.27077273 2.79234884,7.308 C2.79234884,7.308 2.79234884,7.308 2.71960465,7.32927273 C1.69644186,7.62913636 1.02672093,7.64468182 1.02672093,7.64468182 C0.591837209,7.65409091 0.236023256,8.03045455 0.236023256,8.48045455 L0.236023256,9.69504545 C0.236023256,10.1450455 0.591837209,10.521 1.02672093,10.53 C1.02672093,10.53 1.61737209,10.5426818 2.74253488,10.7353636 C2.79827907,10.7447727 2.79827907,10.7447727 2.79827907,10.7447727 C2.8544186,10.7603182 2.95048837,10.9161818 3.01216279,11.0912727 C3.07383721,11.2667727 3.23513953,11.8861364 3.19481395,12.1013182 C3.19481395,12.1013182 3.19481395,12.1013182 3.05051163,12.3079091 C2.38869767,13.2537273 1.98425581,13.6845 1.98425581,13.6845 C1.68102326,14.0072727 1.68695349,14.5296818 1.99651163,14.8455 L2.84730233,15.7131818 C3.15725581,16.0285909 3.66962791,16.0347273 3.98590698,15.7258636 C3.98590698,15.7258636 4.46586047,15.2570455 5.39730233,14.7317727 C5.63569767,14.5971818 5.63569767,14.5971818 5.63569767,14.5971818 C5.92469767,14.5922727 6.25204651,14.6282727 6.36234884,14.6769545 C6.47304651,14.7252273 6.81502326,14.9117727 6.86444186,15.0054545 C6.86444186,15.0054545 6.86444186,15.0054545 6.89132558,15.1003636 C7.18546512,16.1443636 7.19969767,16.8140455 7.19969767,16.8140455 C7.20918605,17.2644545 7.57290698,17.6322273 8.0077907,17.6322273 L9.22269767,17.6322273 C9.6575814,17.6322273 10.0213023,17.2644545 10.0307907,16.8140455 C10.0307907,16.8140455 10.0434419,16.2237273 10.2320233,15.0766364 C10.243093,15.0103636 10.243093,15.0103636 10.243093,15.0103636 C10.2616744,14.9453182 10.4047907,14.8479545 10.5609535,14.7943636 C10.7175116,14.7407727 11.3429535,14.5775455 11.6212791,14.5865455 C11.6212791,14.5865455 11.6212791,14.5865455 11.850186,14.7154091 C12.7804419,15.2410909 13.2607907,15.7103182 13.2607907,15.7103182 C13.5774651,16.0191818 14.0894419,16.0130455 14.3993953,15.6972273 L15.250186,14.8291364 C15.5601395,14.5133182 15.5652791,13.9905 15.2620465,13.6681364 C15.2620465,13.6681364 14.858,13.2381818 14.1965814,12.2911364 C14.0562326,12.0898636 14.0562326,12.0898636 14.0562326,12.0898636 C14.0143256,11.8795909 14.0400233,11.5695 14.1135581,11.3993182 C14.187093,11.2299545 14.3764651,10.7541818 14.4195581,10.7423182 C14.4187674,10.7423182 14.4187674,10.7423182 14.4614651,10.7349545 Z M8.62216279,12.6777273 C6.67309302,12.6777273 5.09209302,11.0667273 5.09209302,9.07854545 C5.09209302,7.09036364 6.67309302,5.48018182 8.62216279,5.48018182 C10.5720233,5.48018182 12.1522326,7.09077273 12.1522326,9.07854545 C12.1522326,11.0663182 10.5720233,12.6777273 8.62216279,12.6777273 Z" id="Shape"></path>
                <path d="M14.4614651,10.7349545 C15.5866279,10.5422727 16.1990233,10.5295909 16.1990233,10.5295909 C16.6343023,10.5205909 16.9897209,10.1446364 16.9897209,9.69463636 L16.9897209,8.48004545 C16.9897209,8.03004545 16.6354884,7.63077273 16.2017907,7.59313636 C16.2017907,7.59313636 15.1893023,7.50436364 14.4847907,7.32886364 C14.4262791,7.31413636 14.4262791,7.31413636 14.4262791,7.31413636 C14.3677674,7.28631818 14.2724884,7.13331818 14.2159535,6.97336364 C14.1586279,6.81381818 14.0163023,6.24068182 14.0593953,6.03572727 C14.0593953,6.03572727 14.0593953,6.03572727 14.1965814,5.83977273 C14.858,4.89272727 15.2620465,4.46277273 15.2620465,4.46277273 C15.5652791,4.14 15.5601395,3.61759091 15.250186,3.30177273 L14.3993953,2.43409091 C14.0894419,2.11827273 13.5770698,2.11213636 13.2607907,2.421 C13.2607907,2.421 12.7804419,2.88940909 11.850186,3.4155 C11.637093,3.53577273 11.637093,3.53577273 11.637093,3.53577273 C11.3781395,3.54968182 11.0373488,3.50304545 10.8796047,3.43145455 C10.7218605,3.35986364 10.277093,3.17209091 10.2644419,3.12422727 C10.2644419,3.12422727 10.2644419,3.12422727 10.2565349,3.07677273 C10.0683488,1.93009091 10.0529302,1.05954545 10.0529302,1.05954545 C10.0450233,0.609545455 9.68248837,0.241363636 9.24760465,0.241363636 L8.03269767,0.241363636 C7.59781395,0.241363636 7.23527907,0.609545455 7.22697674,1.05954545 C7.22697674,1.05954545 7.2095814,2.01068182 6.91544186,3.05427273 C6.89686047,3.12054545 6.89686047,3.12054545 6.89686047,3.12054545 C6.86404651,3.18722727 6.74662791,3.27436364 6.63553488,3.31486364 C6.52444186,3.35495455 5.99823256,3.47236364 5.70488372,3.4695 C5.70488372,3.4695 5.70488372,3.4695 5.46293023,3.33245455 C4.53148837,2.80759091 4.05153488,2.33918182 4.05153488,2.33918182 C3.73525581,2.03031818 3.22288372,2.03604545 2.91293023,2.35186364 L2.06253488,3.21913636 C1.7525814,3.53495455 1.74744186,4.05736364 2.05027907,4.37972727 C2.05027907,4.37972727 2.45472093,4.8105 3.11653488,5.75754545 C3.24067442,5.93509091 3.24067442,5.93509091 3.24067442,5.93509091 C3.28653488,6.12163636 3.25767442,6.41577273 3.17623256,6.58840909 C3.0947907,6.76145455 2.86548837,7.27077273 2.79234884,7.308 C2.79234884,7.308 2.79234884,7.308 2.71960465,7.32927273 C1.69644186,7.62913636 1.02672093,7.64468182 1.02672093,7.64468182 C0.591837209,7.65409091 0.236023256,8.03045455 0.236023256,8.48045455 L0.236023256,9.69504545 C0.236023256,10.1450455 0.591837209,10.521 1.02672093,10.53 C1.02672093,10.53 1.61737209,10.5426818 2.74253488,10.7353636 C2.79827907,10.7447727 2.79827907,10.7447727 2.79827907,10.7447727 C2.8544186,10.7603182 2.95048837,10.9161818 3.01216279,11.0912727 C3.07383721,11.2667727 3.23513953,11.8861364 3.19481395,12.1013182 C3.19481395,12.1013182 3.19481395,12.1013182 3.05051163,12.3079091 C2.38869767,13.2537273 1.98425581,13.6845 1.98425581,13.6845 C1.68102326,14.0072727 1.68695349,14.5296818 1.99651163,14.8455 L2.84730233,15.7131818 C3.15725581,16.0285909 3.66962791,16.0347273 3.98590698,15.7258636 C3.98590698,15.7258636 4.46586047,15.2570455 5.39730233,14.7317727 C5.63569767,14.5971818 5.63569767,14.5971818 5.63569767,14.5971818 C5.92469767,14.5922727 6.25204651,14.6282727 6.36234884,14.6769545 C6.47304651,14.7252273 6.81502326,14.9117727 6.86444186,15.0054545 C6.86444186,15.0054545 6.86444186,15.0054545 6.89132558,15.1003636 C7.18546512,16.1443636 7.19969767,16.8140455 7.19969767,16.8140455 C7.20918605,17.2644545 7.57290698,17.6322273 8.0077907,17.6322273 L9.22269767,17.6322273 C9.6575814,17.6322273 10.0213023,17.2644545 10.0307907,16.8140455 C10.0307907,16.8140455 10.0434419,16.2237273 10.2320233,15.0766364 C10.243093,15.0103636 10.243093,15.0103636 10.243093,15.0103636 C10.2616744,14.9453182 10.4047907,14.8479545 10.5609535,14.7943636 C10.7175116,14.7407727 11.3429535,14.5775455 11.6212791,14.5865455 C11.6212791,14.5865455 11.6212791,14.5865455 11.850186,14.7154091 C12.7804419,15.2410909 13.2607907,15.7103182 13.2607907,15.7103182 C13.5774651,16.0191818 14.0894419,16.0130455 14.3993953,15.6972273 L15.250186,14.8291364 C15.5601395,14.5133182 15.5652791,13.9905 15.2620465,13.6681364 C15.2620465,13.6681364 14.858,13.2381818 14.1965814,12.2911364 C14.0562326,12.0898636 14.0562326,12.0898636 14.0562326,12.0898636 C14.0143256,11.8795909 14.0400233,11.5695 14.1135581,11.3993182 C14.187093,11.2299545 14.3764651,10.7541818 14.4195581,10.7423182 C14.4187674,10.7423182 14.4187674,10.7423182 14.4614651,10.7349545 Z M8.62216279,12.6777273 C6.67309302,12.6777273 5.09209302,11.0667273 5.09209302,9.07854545 C5.09209302,7.09036364 6.67309302,5.48018182 8.62216279,5.48018182 C10.5720233,5.48018182 12.1522326,7.09077273 12.1522326,9.07854545 C12.1522326,11.0663182 10.5720233,12.6777273 8.62216279,12.6777273 Z" id="Shape"></path>
            </g>
            <g id="Group" transform="translate(10.000000, 0.000000)">
                <path d="M11.746,8.3436 C12.6458889,8.1908 12.9904444,8.1832 12.9904444,8.1832 C13.4186111,8.174 13.7682222,7.8068 13.7682222,7.3664 L13.7682222,6.7 C13.7682222,6.26 13.4197778,5.8696 12.9931667,5.8328 C12.9931667,5.8328 12.3281667,5.7748 11.7646667,5.6356 C11.7176111,5.624 11.7176111,5.624 11.7176111,5.624 C11.6709444,5.6016 11.5955,5.4796 11.5496111,5.3528 C11.5037222,5.226 11.3897778,4.7696 11.424,4.6072 C11.424,4.6072 11.424,4.6072 11.5328889,4.452 C12.0621667,3.6988 12.2846111,3.4636 12.2846111,3.4636 C12.5828889,3.148 12.5778333,2.6376 12.2729444,2.3288 L11.7992778,1.8488 C11.4943889,1.54 10.9903889,1.534 10.6792778,1.836 C10.6792778,1.836 10.4008333,2.1056 9.6565,2.524 C9.48616667,2.6192 9.48616667,2.6192 9.48616667,2.6192 C9.27966667,2.6304 9.00822222,2.5936 8.88338889,2.5372 C8.75855556,2.4808 8.40272222,2.3328 8.38872222,2.2956 C8.38872222,2.2956 8.38872222,2.2956 8.38172222,2.2544 C8.23122222,1.3428 8.22188889,0.8 8.22188889,0.8 C8.21411111,0.36 7.8575,0 7.43011111,0 L6.74877778,0 C6.321,0 5.964,0.36 5.95622222,0.8 C5.95622222,0.8 5.94494444,1.4072 5.70966667,2.2368 C5.69488889,2.2892 5.69488889,2.2892 5.69488889,2.2892 C5.66883333,2.342 5.57472222,2.4116 5.48605556,2.4432 C5.397,2.4752 4.97622222,2.5684 4.74172222,2.5664 C4.74172222,2.5664 4.74172222,2.5664 4.54766667,2.4576 C3.80255556,2.04 3.52488889,1.7704 3.52488889,1.7704 C3.21338889,1.4684 2.70977778,1.474 2.40488889,1.7828 L1.93122222,2.2628 C1.62633333,2.5716 1.62127778,3.0824 1.91916667,3.398 C1.91916667,3.398 2.14122222,3.6328 2.67088889,4.3856 C2.77005556,4.5268 2.77005556,4.5268 2.77005556,4.5268 C2.807,4.6752 2.78405556,4.9088 2.71872222,5.0464 C2.65377778,5.184 2.46983333,5.5888 2.4115,5.6184 C2.4115,5.6184 2.4115,5.6184 2.35316667,5.6352 C1.53494444,5.8744 1.1445,5.8828 1.1445,5.8828 C0.716722222,5.892 0.366722222,6.2596 0.366722222,6.6996 L0.366722222,7.3664 C0.366722222,7.8064 0.716722222,8.174 1.1445,8.1832 C1.1445,8.1832 1.47155556,8.1904 2.37144444,8.3432 C2.42005556,8.3516 2.42005556,8.3516 2.42005556,8.3516 C2.46438889,8.3688 2.54061111,8.4956 2.58961111,8.6332 C2.63861111,8.7708 2.76616667,9.2592 2.7335,9.43 C2.7335,9.43 2.7335,9.43 2.61838889,9.5936 C2.08872222,10.346 1.86666667,10.5812 1.86666667,10.5812 C1.56838889,10.8968 1.57422222,11.4076 1.87872222,11.7164 L2.35238889,12.1964 C2.65727778,12.5052 3.16088889,12.5108 3.472,12.2088 C3.472,12.2088 3.75005556,11.9392 4.49555556,11.5216 C4.68611111,11.4144 4.68611111,11.4144 4.68611111,11.4144 C4.91711111,11.4104 5.17883333,11.4392 5.26711111,11.4776 C5.35538889,11.516 5.62916667,11.6644 5.66883333,11.7388 C5.66883333,11.7388 5.66883333,11.7388 5.69022222,11.8144 C5.9255,12.6444 5.93366667,13.0284 5.93366667,13.0284 C5.943,13.4684 6.30077778,13.8284 6.72855556,13.8284 L7.41027778,13.8284 C7.83805556,13.8284 8.19583333,13.4684 8.20477778,13.0284 C8.20477778,13.0284 8.21177778,12.7076 8.36266667,11.796 C8.372,11.7392 8.372,11.7392 8.372,11.7392 C8.39183333,11.688 8.50733333,11.6112 8.62905556,11.5684 C8.75077778,11.526 9.24544444,11.3984 9.47061111,11.4044 C9.47061111,11.4044 9.47061111,11.4044 9.6565,11.5084 C10.4008333,11.926 10.6792778,12.1964 10.6792778,12.1964 C10.9907778,12.4984 11.4943889,12.4928 11.7992778,12.184 L12.2729444,11.7032 C12.5778333,11.3944 12.5828889,10.8836 12.2846111,10.5684 C12.2846111,10.5684 12.0625556,10.3336 11.5328889,9.5808 C11.4173889,9.4164 11.4173889,9.4164 11.4173889,9.4164 C11.3855,9.2452 11.4072778,8.9984 11.466,8.8672 C11.5247222,8.736 11.6744444,8.3636 11.7082778,8.35 C11.7082778,8.35 11.7082778,8.35 11.746,8.3436 Z M7.07466667,9.8884 C5.516,9.8884 4.25133333,8.6076 4.25133333,7.0268 C4.25133333,5.446 5.516,4.1652 7.07466667,4.1652 C8.63527778,4.1652 9.89877778,5.446 9.89877778,7.0268 C9.89877778,8.6076 8.63527778,9.8884 7.07466667,9.8884 Z" id="Shape"></path>
                <path d="M11.746,8.3436 C12.6458889,8.1908 12.9904444,8.1832 12.9904444,8.1832 C13.4186111,8.174 13.7682222,7.8068 13.7682222,7.3664 L13.7682222,6.7 C13.7682222,6.26 13.4197778,5.8696 12.9931667,5.8328 C12.9931667,5.8328 12.3281667,5.7748 11.7646667,5.6356 C11.7176111,5.624 11.7176111,5.624 11.7176111,5.624 C11.6709444,5.6016 11.5955,5.4796 11.5496111,5.3528 C11.5037222,5.226 11.3897778,4.7696 11.424,4.6072 C11.424,4.6072 11.424,4.6072 11.5328889,4.452 C12.0621667,3.6988 12.2846111,3.4636 12.2846111,3.4636 C12.5828889,3.148 12.5778333,2.6376 12.2729444,2.3288 L11.7992778,1.8488 C11.4943889,1.54 10.9903889,1.534 10.6792778,1.836 C10.6792778,1.836 10.4008333,2.1056 9.6565,2.524 C9.48616667,2.6192 9.48616667,2.6192 9.48616667,2.6192 C9.27966667,2.6304 9.00822222,2.5936 8.88338889,2.5372 C8.75855556,2.4808 8.40272222,2.3328 8.38872222,2.2956 C8.38872222,2.2956 8.38872222,2.2956 8.38172222,2.2544 C8.23122222,1.3428 8.22188889,0.8 8.22188889,0.8 C8.21411111,0.36 7.8575,0 7.43011111,0 L6.74877778,0 C6.321,0 5.964,0.36 5.95622222,0.8 C5.95622222,0.8 5.94494444,1.4072 5.70966667,2.2368 C5.69488889,2.2892 5.69488889,2.2892 5.69488889,2.2892 C5.66883333,2.342 5.57472222,2.4116 5.48605556,2.4432 C5.397,2.4752 4.97622222,2.5684 4.74172222,2.5664 C4.74172222,2.5664 4.74172222,2.5664 4.54766667,2.4576 C3.80255556,2.04 3.52488889,1.7704 3.52488889,1.7704 C3.21338889,1.4684 2.70977778,1.474 2.40488889,1.7828 L1.93122222,2.2628 C1.62633333,2.5716 1.62127778,3.0824 1.91916667,3.398 C1.91916667,3.398 2.14122222,3.6328 2.67088889,4.3856 C2.77005556,4.5268 2.77005556,4.5268 2.77005556,4.5268 C2.807,4.6752 2.78405556,4.9088 2.71872222,5.0464 C2.65377778,5.184 2.46983333,5.5888 2.4115,5.6184 C2.4115,5.6184 2.4115,5.6184 2.35316667,5.6352 C1.53494444,5.8744 1.1445,5.8828 1.1445,5.8828 C0.716722222,5.892 0.366722222,6.2596 0.366722222,6.6996 L0.366722222,7.3664 C0.366722222,7.8064 0.716722222,8.174 1.1445,8.1832 C1.1445,8.1832 1.47155556,8.1904 2.37144444,8.3432 C2.42005556,8.3516 2.42005556,8.3516 2.42005556,8.3516 C2.46438889,8.3688 2.54061111,8.4956 2.58961111,8.6332 C2.63861111,8.7708 2.76616667,9.2592 2.7335,9.43 C2.7335,9.43 2.7335,9.43 2.61838889,9.5936 C2.08872222,10.346 1.86666667,10.5812 1.86666667,10.5812 C1.56838889,10.8968 1.57422222,11.4076 1.87872222,11.7164 L2.35238889,12.1964 C2.65727778,12.5052 3.16088889,12.5108 3.472,12.2088 C3.472,12.2088 3.75005556,11.9392 4.49555556,11.5216 C4.68611111,11.4144 4.68611111,11.4144 4.68611111,11.4144 C4.91711111,11.4104 5.17883333,11.4392 5.26711111,11.4776 C5.35538889,11.516 5.62916667,11.6644 5.66883333,11.7388 C5.66883333,11.7388 5.66883333,11.7388 5.69022222,11.8144 C5.9255,12.6444 5.93366667,13.0284 5.93366667,13.0284 C5.943,13.4684 6.30077778,13.8284 6.72855556,13.8284 L7.41027778,13.8284 C7.83805556,13.8284 8.19583333,13.4684 8.20477778,13.0284 C8.20477778,13.0284 8.21177778,12.7076 8.36266667,11.796 C8.372,11.7392 8.372,11.7392 8.372,11.7392 C8.39183333,11.688 8.50733333,11.6112 8.62905556,11.5684 C8.75077778,11.526 9.24544444,11.3984 9.47061111,11.4044 C9.47061111,11.4044 9.47061111,11.4044 9.6565,11.5084 C10.4008333,11.926 10.6792778,12.1964 10.6792778,12.1964 C10.9907778,12.4984 11.4943889,12.4928 11.7992778,12.184 L12.2729444,11.7032 C12.5778333,11.3944 12.5828889,10.8836 12.2846111,10.5684 C12.2846111,10.5684 12.0625556,10.3336 11.5328889,9.5808 C11.4173889,9.4164 11.4173889,9.4164 11.4173889,9.4164 C11.3855,9.2452 11.4072778,8.9984 11.466,8.8672 C11.5247222,8.736 11.6744444,8.3636 11.7082778,8.35 C11.7082778,8.35 11.7082778,8.35 11.746,8.3436 Z M7.07466667,9.8884 C5.516,9.8884 4.25133333,8.6076 4.25133333,7.0268 C4.25133333,5.446 5.516,4.1652 7.07466667,4.1652 C8.63527778,4.1652 9.89877778,5.446 9.89877778,7.0268 C9.89877778,8.6076 8.63527778,9.8884 7.07466667,9.8884 Z" id="Shape"></path>
            </g>
        </g>
        <g id="noun_File_47681" transform="translate(236.000000, 150.000000)" fill="#000000" fill-rule="nonzero">
            <path d="M15.9977778,0.00895555556 L15.9977778,0 L15.9889185,0 L14.7714519,0 L0,0 L0,31 L23,31 L23,7.06076667 L15.9977778,0.00895555556 Z M15.9977778,1.75942222 L21.2540444,7.0525 L15.9977778,7.0525 L15.9977778,1.75942222 Z M1.22666667,29.76 L1.22666667,1.24 L14.7714519,1.24 L14.7714519,8.2925 L21.7736741,8.2925 L21.7736741,29.76 L1.22666667,29.76 Z" id="Shape"></path>
            <g id="noun_Graph_1310708" transform="translate(3.000000, 9.000000)">
                <path d="M3.37596665,9.57894737 C3.32542719,9.57894737 3.249618,9.55319013 3.19907854,9.52743289 C3.04746017,9.42440394 3.02219044,9.21834604 3.09799963,9.06380261 L6.53468275,3.78356885 C6.5852222,3.70629714 6.66103139,3.65478266 6.7621103,3.62902543 C6.86318922,3.60326819 6.93899841,3.65478266 7.01480759,3.70629714 L11.7655166,7.85321243 L15.0253116,2.88206553 C15.1263905,2.7275221 15.3285484,2.70176486 15.4801667,2.77903658 C15.6317851,2.88206553 15.6570548,3.08812343 15.5812457,3.24266686 L12.1192928,8.52290062 C12.0687534,8.60017233 11.9929442,8.65168681 11.8918652,8.67744404 C11.7907863,8.70320128 11.7149771,8.65168681 11.639168,8.60017233 L6.88845895,4.45325704 L3.65393366,9.45016118 C3.57812448,9.52743289 3.47704556,9.57894737 3.37596665,9.57894737 Z" id="Path"></path>
                <ellipse id="Oval" cx="3.39622642" cy="9.23684211" rx="1.35849057" ry="1.36842105"></ellipse>
                <ellipse id="Oval" cx="11.8867925" cy="8.21052632" rx="1.35849057" ry="1.36842105"></ellipse>
                <ellipse id="Oval" cx="6.79245283" cy="3.76315789" rx="1.35849057" ry="1.36842105"></ellipse>
                <ellipse id="Oval" cx="15.2830189" cy="3.07894737" rx="1.35849057" ry="1.36842105"></ellipse>
                <path d="M17.7689016,13 L0.256776034,13 C0.102710414,13 0,12.8968254 0,12.7420635 L0,0.257936508 C0,0.103174603 0.102710414,0 0.256776034,0 C0.410841655,0 0.513552068,0.103174603 0.513552068,0.257936508 L0.513552068,12.4583333 L17.743224,12.4583333 C17.8972896,12.4583333 18,12.5615079 18,12.7162698 C18,12.8710317 17.8972896,13 17.7689016,13 Z" id="Path"></path>
            </g>
        </g>
        <use id="Rectangle" stroke="#979797" mask="url(#mask-2)" stroke-width="2" stroke-dasharray="2,1" xlink:href="#path-1"></use>
        <use id="Rectangle" stroke="#979797" mask="url(#mask-4)" stroke-width="2" stroke-dasharray="4,3" xlink:href="#path-3"></use>
        <line x1="247" y1="55" x2="247" y2="83" id="Line-6-Copy" stroke="#00CE7D" stroke-width="2" stroke-linecap="square"></line>
        <line x1="322" y1="167" x2="322" y2="194" id="Line-6-Copy" stroke="#FE7E79" stroke-width="2" stroke-linecap="square"></line>
        <g id="Group-4" transform="translate(235.000000, 63.000000)">
            <rect id="Rectangle" fill="#FFFFFF" x="0" y="0" width="22" height="30"></rect>
            <g id="noun_Document_5873" fill="#000000" fill-rule="nonzero">
                <path d="M16.4485333,0 L0,0 L0,31 L24,31 L24,7.50305983 L16.4485333,0 Z M16.8,2.03540171 L21.9514667,7.15384615 L16.8,7.15384615 L16.8,2.03540171 Z M1.2,29.8076923 L1.2,1.19230769 L15.6,1.19230769 L15.6,8.34615385 L22.8,8.34615385 L22.8,29.8076923 L1.2,29.8076923 Z" id="Shape"></path>
                <rect id="Rectangle" x="5.41935484" y="13.95" width="13.9354839" height="1"></rect>
                <rect id="Rectangle" x="5.41935484" y="18.6" width="13.9354839" height="1"></rect>
                <rect id="Rectangle" x="5.41935484" y="10.85" width="8.51612903" height="1"></rect>
                <rect id="Rectangle" x="5.41935484" y="21.7" width="13.9354839" height="1"></rect>
            </g>
        </g>
        <line x1="201.5" y1="6.5" x2="168.5" y2="115.5" id="Line-7" stroke="#979797" stroke-dasharray="2,1"></line>
        <line x1="201.5" y1="326.5" x2="168.5" y2="185.5" id="Line-7" stroke="#979797" stroke-dasharray="2,1"></line>
    </g>
</svg>